<svg xmlns="http://www.w3.org/2000/svg" version="1.1" xmlns:xlink="http://www.w3.org/1999/xlink" xmlns:svgjs="http://svgjs.dev/svgjs" width="1000" height="373" viewBox="0 0 1000 373"><g transform="matrix(1,0,0,1,-0.6060606060606233,-0.14616674040715338)"><svg viewBox="0 0 396 148" data-background-color="#ffffff" preserveAspectRatio="xMidYMid meet" height="373" width="1000" xmlns="http://www.w3.org/2000/svg" xmlns:xlink="http://www.w3.org/1999/xlink"><g id="tight-bounds" transform="matrix(1,0,0,1,0.2400000000000091,0.05799645463876857)"><svg viewBox="0 0 395.52 147.88400709072246" height="147.88400709072246" width="395.52"><g><svg viewBox="0 0 537.5802398377629 201" height="147.88400709072246" width="395.52"><g><rect width="8.412183612094067" height="201" x="187.66175073854671" y="0" fill="#ff0000" opacity="1" stroke-width="0" stroke="transparent" fill-opacity="1" class="rect-o-0" data-fill-palette-color="primary" rx="1%" id="o-0" data-palette-color="#ff0000"></rect></g><g transform="matrix(1,0,0,1,218.09535741894985,0.4999999999999858)"><svg viewBox="0 0 319.484882418813 200.00000000000003" height="200.00000000000003" width="319.484882418813"><g id="textblocktransform"><svg viewBox="0 0 319.484882418813 200.00000000000003" height="200.00000000000003" width="319.484882418813" id="textblock"><g><svg viewBox="0 0 319.484882418813 200.00000000000003" height="200.00000000000003" width="319.484882418813"><g transform="matrix(1,0,0,1,0,0)"><svg width="319.484882418813" viewBox="2.1000001430511475 -41.05000305175781 143.55001831054688 86.30000305175781" height="200.00000000000003" data-palette-color="#ff0000"><svg></svg><svg></svg><g class="wordmark-text-0" data-fill-palette-color="primary" id="text-0"><path xmlns="http://www.w3.org/2000/svg" d="M13.75 0.6v0c-2.533 0-4.65-0.45-6.35-1.35-1.7-0.9-2.983-2.293-3.85-4.18-0.867-1.88-1.35-4.32-1.45-7.32v0l7.65-1.15c0.033 1.733 0.193 3.133 0.48 4.2 0.28 1.067 0.68 1.833 1.2 2.3 0.513 0.467 1.137 0.7 1.87 0.7v0c0.933 0 1.543-0.317 1.83-0.95 0.28-0.633 0.42-1.3 0.42-2v0c0-1.667-0.4-3.077-1.2-4.23-0.8-1.147-1.883-2.303-3.25-3.47v0l-3.5-3.05c-1.533-1.3-2.823-2.777-3.87-4.43-1.053-1.647-1.58-3.687-1.58-6.12v0c0-3.433 1.017-6.06 3.05-7.88 2.033-1.813 4.8-2.72 8.3-2.72v0c2.167 0 3.91 0.367 5.23 1.1 1.313 0.733 2.313 1.69 3 2.87 0.68 1.187 1.147 2.437 1.4 3.75 0.247 1.32 0.387 2.58 0.42 3.78v0l-7.7 0.95c-0.033-1.2-0.107-2.243-0.22-3.13-0.12-0.88-0.363-1.56-0.73-2.04-0.367-0.487-0.933-0.73-1.7-0.73v0c-0.833 0-1.44 0.35-1.82 1.05-0.387 0.7-0.58 1.4-0.58 2.1v0c0 1.5 0.36 2.723 1.08 3.67 0.713 0.953 1.653 1.947 2.82 2.98v0l3.35 2.95c1.767 1.5 3.26 3.2 4.48 5.1 1.213 1.9 1.82 4.25 1.82 7.05v0c0 1.9-0.433 3.627-1.3 5.18-0.867 1.547-2.09 2.77-3.67 3.67-1.587 0.9-3.463 1.35-5.63 1.35zM39.25 0.6v0c-2.8 0-5.007-0.583-6.62-1.75-1.62-1.167-2.77-2.81-3.45-4.93-0.687-2.113-1.03-4.553-1.03-7.32v0-13.6c0-2.867 0.367-5.35 1.1-7.45 0.733-2.1 1.993-3.727 3.78-4.88 1.78-1.147 4.203-1.72 7.27-1.72v0c3 0 5.36 0.5 7.08 1.5 1.713 1 2.937 2.383 3.67 4.15 0.733 1.767 1.1 3.833 1.1 6.2v0 2.6h-8.75v-3.3c0-0.867-0.057-1.667-0.17-2.4-0.12-0.733-0.387-1.327-0.8-1.78-0.42-0.447-1.097-0.67-2.03-0.67v0c-0.967 0-1.667 0.257-2.1 0.77-0.433 0.52-0.707 1.163-0.82 1.93-0.12 0.767-0.18 1.567-0.18 2.4v0 18.75c0 0.9 0.093 1.74 0.28 2.52 0.18 0.787 0.513 1.42 1 1.9 0.48 0.487 1.17 0.73 2.07 0.73v0c0.933 0 1.65-0.25 2.15-0.75 0.5-0.5 0.85-1.15 1.05-1.95 0.2-0.8 0.3-1.65 0.3-2.55v0-4.75h-3.65v-5.25h11.7v21h-5.9l-0.5-3.35c-0.533 1.133-1.317 2.073-2.35 2.82-1.033 0.753-2.433 1.13-4.2 1.13z" fill="#ff0000" fill-rule="nonzero" stroke="none" stroke-width="1" stroke-linecap="butt" stroke-linejoin="miter" stroke-miterlimit="10" stroke-dasharray="" stroke-dashoffset="0" font-family="none" font-weight="none" font-size="none" text-anchor="none" style="mix-blend-mode: normal" data-fill-palette-color="primary" opacity="1"></path><path xmlns="http://www.w3.org/2000/svg" d="M21.3 44.65h-18.3v-40.5h18.2v6.1h-9.25v10.05h7.05v6.2h-7.05v12.1h9.35zM40.2 44.65h-9.45l-7.3-40.5h7.65l4.35 27.5 4.05-27.5h8.1zM69.95 44.65h-18.3v-40.5h18.2v6.1h-9.25v10.05h7.05v6.2h-7.05v12.1h9.35zM81.65 44.65h-7.65v-40.5h6.3l8.3 19.5v-19.5h7.4v40.5h-6.05l-8.3-21zM114.7 44.65h-9v-33.85h-6.1v-6.65h21.15v6.65h-6.05zM135.05 45.25v0c-2.533 0-4.65-0.45-6.35-1.35-1.7-0.9-2.983-2.293-3.85-4.18-0.867-1.88-1.35-4.32-1.45-7.32v0l7.65-1.15c0.033 1.733 0.193 3.133 0.48 4.2 0.28 1.067 0.677 1.833 1.19 2.3 0.52 0.467 1.147 0.7 1.88 0.7v0c0.933 0 1.543-0.317 1.83-0.95 0.28-0.633 0.42-1.3 0.42-2v0c0-1.667-0.4-3.077-1.2-4.23-0.8-1.147-1.883-2.303-3.25-3.47v0l-3.5-3.05c-1.533-1.3-2.827-2.777-3.88-4.43-1.047-1.647-1.57-3.687-1.57-6.12v0c0-3.433 1.017-6.06 3.05-7.88 2.033-1.813 4.8-2.72 8.3-2.72v0c2.167 0 3.91 0.367 5.23 1.1 1.313 0.733 2.313 1.69 3 2.87 0.68 1.187 1.147 2.437 1.4 3.75 0.247 1.32 0.387 2.58 0.42 3.78v0l-7.7 0.95c-0.033-1.2-0.107-2.243-0.22-3.13-0.12-0.88-0.363-1.56-0.73-2.04-0.367-0.487-0.933-0.73-1.7-0.73v0c-0.833 0-1.44 0.35-1.82 1.05-0.387 0.7-0.58 1.4-0.58 2.1v0c0 1.5 0.36 2.723 1.08 3.67 0.713 0.953 1.653 1.947 2.82 2.98v0l3.35 2.95c1.767 1.5 3.257 3.2 4.47 5.1 1.22 1.9 1.83 4.25 1.83 7.05v0c0 1.9-0.433 3.627-1.3 5.18-0.867 1.547-2.09 2.77-3.67 3.67-1.587 0.9-3.463 1.35-5.63 1.35z" fill="#ff0000" fill-rule="nonzero" stroke="none" stroke-width="1" stroke-linecap="butt" stroke-linejoin="miter" stroke-miterlimit="10" stroke-dasharray="" stroke-dashoffset="0" font-family="none" font-weight="none" font-size="none" text-anchor="none" style="mix-blend-mode: normal" data-fill-palette-color="primary" opacity="1"></path></g></svg></g></svg></g></svg></g></svg></g><g transform="matrix(1,0,0,1,0,0.4999999999999858)"><svg viewBox="0 0 165.64032767023764 200.00000000000003" height="200.00000000000003" width="165.64032767023764"><g><svg xmlns="http://www.w3.org/2000/svg" xmlns:xlink="http://www.w3.org/1999/xlink" version="1.1" x="0" y="0" viewBox="18.75 14.341999053955078 42.5 51.31600570678711" enable-background="new 0 0 80 80" xml:space="preserve" height="200.00000000000003" width="165.64032767023764" class="icon-icon-0" data-fill-palette-color="accent" id="icon-0"><g fill="#ed2647" data-fill-palette-color="accent"><path d="M53.06 18.592v-2.25c0-1.104-0.896-2-2-2s-2 0.896-2 2v1.816H31.372v-1.816c0-1.104-0.896-2-2-2s-2 0.896-2 2v2.139c-4.938 1.188-8.622 5.631-8.622 10.928v2.261h42.5v-2.261C61.25 24.267 57.778 19.93 53.06 18.592zM40 28.675c-1.653 0-3-1.346-3-3s1.347-3 3-3 3 1.346 3 3S41.653 28.675 40 28.675z" fill="#ed2647" data-fill-palette-color="accent"></path><path d="M18.75 54.408c0 6.203 5.047 11.25 11.25 11.25h20c6.203 0 11.25-5.047 11.25-11.25V35.67h-42.5V54.408zM37.854 60.088l-0.579 1.466c-0.144 0.364-0.493 0.587-0.862 0.587-0.113 0-0.229-0.021-0.34-0.064-0.477-0.188-0.71-0.727-0.522-1.203l0.578-1.466c0.188-0.476 0.726-0.708 1.202-0.522C37.808 59.073 38.041 59.611 37.854 60.088zM52.171 55.119C52.024 55.48 51.678 55.7 51.31 55.7c-0.114 0-0.23-0.021-0.344-0.065l-1.464-0.587c-0.476-0.19-0.706-0.73-0.516-1.206 0.19-0.475 0.729-0.705 1.205-0.516l1.464 0.587C52.13 54.104 52.36 54.643 52.171 55.119zM49.397 45.76l1.449-0.617c0.472-0.201 1.015 0.018 1.215 0.49 0.201 0.471-0.019 1.015-0.488 1.215l-1.451 0.617c-0.117 0.051-0.24 0.074-0.362 0.074-0.36 0-0.702-0.211-0.853-0.564C48.706 46.505 48.927 45.96 49.397 45.76zM45.56 61.918c-0.12 0.051-0.245 0.076-0.368 0.076-0.358 0-0.7-0.209-0.851-0.56l-0.625-1.448c-0.203-0.47 0.014-1.016 0.482-1.219 0.471-0.203 1.016 0.014 1.219 0.484l0.625 1.447C46.245 61.17 46.028 61.715 45.56 61.918zM43.497 40.955l0.592-1.459c0.191-0.476 0.73-0.705 1.205-0.512 0.475 0.191 0.704 0.732 0.512 1.206l-0.591 1.46c-0.146 0.361-0.493 0.579-0.858 0.579-0.116 0-0.234-0.021-0.348-0.067C43.534 41.97 43.306 41.43 43.497 40.955zM39.618 45.62c0.559-0.829 1.613-1.229 2.607-0.9S43.828 46 43.781 47l0.006-0.002 0.137 5.439-7.617-2.596 3.308-4.225L39.618 45.62zM35.812 39.043c0.471-0.199 1.016 0.024 1.213 0.496l0.608 1.453c0.198 0.472-0.023 1.015-0.495 1.212-0.117 0.05-0.24 0.072-0.359 0.072-0.361 0-0.705-0.214-0.854-0.568l-0.609-1.452C35.117 39.783 35.339 39.24 35.812 39.043zM34.797 51.986c0.072-0.217 0.183-0.408 0.308-0.586l8.846 3.014c-0.01 0.189-0.035 0.381-0.098 0.57-0.396 1.197-1.691 1.848-2.889 1.453 0 0 0 0-0.002 0l-4.738-1.57v-0.003C35.044 54.459 34.403 53.175 34.797 51.986zM31.902 55.343l-1.444 0.632c-0.12 0.053-0.247 0.078-0.37 0.078-0.357 0-0.698-0.207-0.85-0.557-0.206-0.469 0.009-1.015 0.478-1.219l1.445-0.633c0.47-0.207 1.015 0.011 1.219 0.479C32.586 54.592 32.371 55.139 31.902 55.343zM29.129 45.774c0.195-0.473 0.74-0.696 1.21-0.504l1.455 0.6c0.473 0.196 0.699 0.737 0.504 1.21-0.147 0.357-0.493 0.574-0.857 0.574-0.117 0-0.237-0.023-0.353-0.07l-1.455-0.6C29.159 46.789 28.935 46.248 29.129 45.774z" fill="#ed2647" data-fill-palette-color="accent"></path></g></svg></g></svg></g></svg></g><defs></defs></svg><rect width="395.52" height="147.88400709072246" fill="none" stroke="none" visibility="hidden"></rect></g></svg></g></svg>